<?xml version="1.0" encoding="UTF-8"?>
<!-- Created with Inkscape (http://www.inkscape.org/) -->
<svg id="svg2" width="20" height="20" version="1.1" xmlns="http://www.w3.org/2000/svg">
 <g id="layer1" transform="translate(-671.14 -644.58)">
  <g id="g4090" transform="matrix(.12656 0 0 -.12656 672.07 663.1)">
   <g id="g4092" transform="scale(.1)">
    <g id="g4285" transform="matrix(10 0 0 10 -4.0035 .11817)">
     <g id="g4287" transform="scale(.1)" fill="#aac69f" fill-rule="evenodd">
      <path id="path4289" d="m727 109.79c305.46 0 553.08 247.63 553.08 553.09 0 305.46-247.63 553.09-553.08 553.09-305.47 0-553.09-247.63-553.09-553.09 0-305.46 247.63-553.09 553.09-553.09"/>
      <path id="path4291" d="m727 149.29c283.64 0 513.58 229.94 513.58 513.58 0 283.64-229.94 513.58-513.58 513.58-283.65 0-513.58-229.94-513.58-513.58 0-283.64 229.94-513.58 513.58-513.58"/>
     </g>
    </g>
   </g>
  </g>
 </g>
</svg>
