<?xml version="1.0" encoding="UTF-8"?>
<!-- Created with Inkscape (http://www.inkscape.org/) -->
<svg id="svg2" width="20" height="20" version="1.1" xmlns="http://www.w3.org/2000/svg">
 <g id="layer1" transform="translate(-671.14 -644.58)">
  <g id="g4090" transform="matrix(.12656 0 0 -.12656 672.07 663.1)">
   <g id="g4092" transform="scale(.1)">
    <g id="g4195" transform="matrix(10 0 0 10 3.1284 -.3631)">
     <g id="g4197" transform="scale(.1)" fill="#675f58" fill-rule="evenodd">
      <path id="path4199" d="m713.73 121.47c305.46 0 553.09 247.62 553.09 553.09 0 305.46-247.63 553.08-553.09 553.08-305.46 0-553.09-247.63-553.09-553.08 0-305.47 247.63-553.09 553.09-553.09"/>
      <path id="path4201" d="m713.73 168.51c279.48 0 506.05 226.56 506.05 506.05 0 279.48-226.57 506.04-506.05 506.04-279.48 0-506.05-226.57-506.05-506.04 0-279.49 226.57-506.05 506.05-506.05"/>
     </g>
    </g>
   </g>
  </g>
 </g>
</svg>
