<?xml version="1.0" encoding="UTF-8"?>
<!-- Created with Inkscape (http://www.inkscape.org/) -->
<svg id="svg13" width="20" height="20" version="1.1" viewBox="0 0 5.2917 5.2917" xmlns="http://www.w3.org/2000/svg">
 <g id="titlebutton-close-hover" transform="matrix(.032498 0 0 .032498 23.371 34.47)" fill-rule="evenodd">
  <path id="path4" d="m-637.58-921.74c31.475 0 56.99-25.516 56.99-56.991s-25.516-56.991-56.99-56.991c-31.475 0-56.991 25.516-56.991 56.991s25.516 56.991 56.991 56.991" fill="#d19494"/>
  <path id="path6" d="m-637.58-926.59c28.797 0 52.143-23.346 52.143-52.144s-23.345-52.143-52.143-52.143-52.144 23.345-52.144 52.143 23.345 52.144 52.144 52.144" fill="#d19494"/>
  <path id="path8" d="m-664.46-958.56 47.051-47.052c1.8209-1.8208 4.8-1.8208 6.6219 0l0.087 0.088c1.8213 1.8208 1.8213 4.8 5.4e-4 6.6213l-47.052 47.051c-1.8213 1.8213-4.8005 1.8213-6.6213 0l-0.088-0.0869c-1.8209-1.8213-1.8209-4.8011 0-6.6219" fill="#46413c"/>
  <path id="path10" d="m-657.75-1005.6 47.051 47.052c1.8208 1.8208 1.8208 4.8005 0 6.6213l-0.0876 0.0875c-1.8213 1.8213-4.8004 1.8213-6.6213 0l-47.051-47.051c-1.8215-1.8214-1.8215-4.8006 0-6.6218l0.0875-0.087c1.8213-1.8213 4.8005-1.8213 6.6219 0" fill="#46413c"/>
 </g>
</svg>
