<?xml version="1.0" encoding="UTF-8"?>
<!-- Created with Inkscape (http://www.inkscape.org/) -->
<svg id="svg13" width="20" height="20" version="1.1" viewBox="0 0 5.2917 5.2917" xmlns="http://www.w3.org/2000/svg">
 <g id="titlebutton-close-active" transform="matrix(.0040622 0 0 -.0040622 .77497 4.5421)" fill-rule="evenodd">
  <path id="path4" d="m461.87 10.287c251.8 0 455.92 204.13 455.92 455.92 0 251.8-204.12 455.93-455.92 455.93s-455.93-204.12-455.93-455.93c0-251.8 204.13-455.92 455.93-455.92" fill="#bd7575"/>
  <path id="path6" d="m461.87 49.063c230.38 0 417.14 186.77 417.14 417.15 0 230.39-186.76 417.15-417.14 417.15-230.39 0-417.15-186.76-417.15-417.15 0-230.38 186.76-417.15 417.15-417.15" fill="#bd7575"/>
  <path id="path8" d="m246.82 304.84 376.41 376.41c14.567 14.571 38.4 14.571 52.975 0l0.69653-0.69973c14.571-14.567 14.571-38.404 4e-3 -52.972l-376.4-376.41c-14.571-14.571-38.404-14.571-52.971 0l-0.704 0.69547c-14.567 14.571-14.567 38.404 0 52.975" fill="#46413c"/>
  <path id="path10" d="m300.5 681.25 376.4-376.41c14.566-14.566 14.566-38.404 0-52.975l-0.7008-0.69547c-14.571-14.571-38.403-14.571-52.971 0l-376.41 376.42c-14.572 14.567-14.572 38.404 0 52.972l0.69974 0.69973c14.571 14.571 38.404 14.571 52.975 0" fill="#46413c"/>
 </g>
</svg>
