<?xml version="1.0" encoding="UTF-8" standalone="no"?>
<!-- Created with Inkscape (http://www.inkscape.org/) -->

<svg
   id="svg11"
   width="20"
   height="20"
   version="1.1"
   viewBox="0 0 5.2917 5.2917"
   sodipodi:docname="maximize_unfocused_pressed.svg"
   inkscape:version="1.2.2 (b0a8486541, 2022-12-01)"
   xmlns:inkscape="http://www.inkscape.org/namespaces/inkscape"
   xmlns:sodipodi="http://sodipodi.sourceforge.net/DTD/sodipodi-0.dtd"
   xmlns="http://www.w3.org/2000/svg"
   xmlns:svg="http://www.w3.org/2000/svg">
  <defs
     id="defs2279" />
  <sodipodi:namedview
     id="namedview2277"
     pagecolor="#ffffff"
     bordercolor="#000000"
     borderopacity="0.25"
     inkscape:showpageshadow="2"
     inkscape:pageopacity="0.0"
     inkscape:pagecheckerboard="0"
     inkscape:deskcolor="#d1d1d1"
     showgrid="false"
     inkscape:zoom="43.1"
     inkscape:cx="7.74942"
     inkscape:cy="10"
     inkscape:window-width="1920"
     inkscape:window-height="1021"
     inkscape:window-x="0"
     inkscape:window-y="0"
     inkscape:window-maximized="1"
     inkscape:current-layer="svg11" />
  <g
     id="titlebutton-maximize-active"
     transform="matrix(.0040622 0 0 -.0040622 .72817 4.4993)"
     fill="#95b18b"
     fill-rule="evenodd">
    <path
       id="path4"
       d="m466.14 10.287c251.8 0 455.92 204.13 455.92 455.92 0 251.8-204.12 455.93-455.92 455.93s-455.93-204.12-455.93-455.93c0-251.8 204.13-455.92 455.93-455.92" />
    <path
       id="path6"
       d="m466.14 49.063c230.38 0 417.15 186.77 417.15 417.15 0 230.39-186.76 417.15-417.15 417.15s-417.15-186.76-417.15-417.15c0-230.38 186.76-417.15 417.15-417.15" />
    <path
       id="path8"
       d="m342.79 698.85h285.01c37.951 0 69.005-31.051 69.005-69.005v-285zm247.81-465.28h-286.13c-37.955 0-69.005 31.05-69.005 69.004v286.14l355.14-355.14"
       style="fill:#46413c;fill-opacity:1" />
  </g>
</svg>
