<?xml version="1.0" encoding="UTF-8"?>
<!-- Created with Inkscape (http://www.inkscape.org/) -->
<svg id="svg11" width="20" height="20" version="1.1" viewBox="0 0 5.2917 5.2917" xmlns="http://www.w3.org/2000/svg">
 <g id="titlebutton-minimize-active" transform="matrix(.0040622 0 0 -.0040622 .74797 4.5456)" fill-rule="evenodd">
  <path id="path4" d="m464.89 10.287c251.8 0 455.93 204.13 455.93 455.92 0 251.8-204.13 455.93-455.93 455.93-251.8-0.01-455.93-204.13-455.93-455.93 0.0025-251.8 204.13-455.92 455.93-455.92" fill="#b4a274"/>
  <path id="path6" d="m464.89 49.063c230.39 0 417.15 186.77 417.15 417.15 0 230.39-186.76 417.15-417.15 417.15-230.38 0-417.15-186.76-417.15-417.15 0-230.38 186.76-417.15 417.15-417.15" fill="#b4a274"/>
  <path id="path8" d="m198.73 504.16h532.33c20.601 0 37.455-16.853 37.455-37.458v-0.992c0-20.604-16.854-37.454-37.455-37.454h-532.33c-20.605 0-37.455 16.85-37.455 37.454v0.992c0 20.605 16.85 37.458 37.455 37.458" fill="#46413c"/>
 </g>
</svg>
