<?xml version="1.0" encoding="UTF-8"?>
<!-- Created with Inkscape (http://www.inkscape.org/) -->
<svg id="svg11" width="20" height="20" version="1.1" viewBox="0 0 5.2917 5.2917" xmlns="http://www.w3.org/2000/svg">
 <g id="titlebutton-minimize-hover" transform="matrix(.0040622 0 0 -.0040622 .74539 4.5473)" fill-rule="evenodd">
  <path id="path4" d="m461.9 2.0792c251.8 0 455.93 204.12 455.93 455.93 0 251.8-204.12 455.92-455.93 455.92-251.8 0-455.92-204.13-455.92-455.93-8e-4 -251.8 204.12-455.92 455.92-455.92" fill="#f3dea4"/>
  <path id="path6" d="m461.9 40.854c230.38 0 417.15 186.76 417.15 417.15 0 230.38-186.76 417.15-417.15 417.15-230.38 0-417.15-186.76-417.15-417.15s186.77-417.15 417.15-417.15" fill="#f3dea4"/>
  <path id="path8" d="m195.74 495.95h532.33c20.604 0 37.458-16.85 37.458-37.458v-0.98773c0-20.608-16.854-37.458-37.458-37.458h-532.33c-20.605 0-37.458 16.85-37.458 37.458v0.98773c0 20.608 16.853 37.458 37.458 37.458" fill="#46413c"/>
 </g>
</svg>
